<svg xmlns="http://www.w3.org/2000/svg" xmlns:xlink="http://www.w3.org/1999/xlink" id="Capa_1" x="0" y="0" version="1.1" viewBox="0 0 100 100" style="enable-background:new 0 0 100 100" xml:space="preserve"><style type="text/css">.st0{fill:#1f1e1e}</style><g id="adjustments" transform="translate(-2 -3)"><path id="Trazado_2" d="M22.9,18c0-3.2-2.6-5.8-5.8-5.8s-5.8,2.6-5.8,5.8l0,0v42.4c-5.6,3.2-7.5,10.3-4.3,15.9 c1,1.8,2.5,3.2,4.3,4.3V88c0,3.2,2.6,5.8,5.8,5.8s5.8-2.6,5.8-5.8v-7.4c5.6-3.2,7.5-10.3,4.3-15.9c-1-1.8-2.5-3.2-4.3-4.3V18z" class="st0"/><path id="Trazado_3" d="M57.8,18c0-3.2-2.6-5.8-5.8-5.8c-3.2,0-5.8,2.6-5.8,5.8l0,0v7.4c-5.6,3.2-7.5,10.4-4.3,15.9 c1,1.8,2.5,3.2,4.3,4.3V88c0,3.2,2.6,5.8,5.8,5.8c3.2,0,5.8-2.6,5.8-5.8V45.6c5.6-3.2,7.5-10.4,4.3-15.9c-1-1.8-2.5-3.2-4.3-4.3V18 z" class="st0"/><path id="Trazado_4" d="M87,12.2c3.2,0,5.8,2.6,5.8,5.8v42.4c5.6,3.2,7.5,10.3,4.3,15.9c-1,1.8-2.5,3.2-4.3,4.3V88 c0,3.2-2.6,5.8-5.8,5.8s-5.8-2.6-5.8-5.8v-7.4c-5.6-3.2-7.5-10.3-4.3-15.9c1-1.8,2.5-3.2,4.3-4.3V18C81.1,14.8,83.7,12.2,87,12.2 C87,12.2,87,12.2,87,12.2z" class="st0"/></g></svg>